<svg xmlns="http://www.w3.org/2000/svg" viewBox="0 0 24 31" fill="currentColor" width="24">
  <path d="M16.9272 0.000799162H3V12.9992H16.9272C17.8508 13.0127 18.768 12.8546 19.6254 12.5341C20.4829 12.2135 21.2634 11.7369 21.9216 11.1321C22.5799 10.5272 23.1026 9.8062 23.4594 9.01096C23.8162 8.21572 24 7.36217 24 6.5C24 5.63783 23.8162 4.78428 23.4594 3.98904C23.1026 3.1938 22.5799 2.47276 21.9216 1.86792C21.2634 1.26307 20.4829 0.786495 19.6254 0.465948C18.768 0.145401 17.8508 -0.0127198 16.9272 0.000799162" fill="black"></path>
  <path d="M14.0736 17.0052H0V31H14.0736C15.9205 30.9712 17.682 30.221 18.9778 28.9114C20.2737 27.6018 21 25.8377 21 24C21 22.1623 20.2737 20.3982 18.9778 19.0886C17.682 17.779 15.9205 17.0288 14.0736 17" fill="black"></path>
</svg>