<?xml version="1.0" encoding="UTF-8"?>
<svg version="1.1" xmlns="http://www.w3.org/2000/svg" width="3000" height="960">
<path d="M0 0 C94.76522652 -0.0806627 94.76522652 -0.0806627 134.40820312 -0.09765625 C143.48120125 -0.10157163 152.5541993 -0.10561249 161.62719727 -0.10986328 C162.76425277 -0.11039078 163.90130828 -0.11091828 165.07282001 -0.11146176 C183.39777062 -0.12014571 201.7227086 -0.13590524 220.04765173 -0.15430559 C238.87262893 -0.17304952 257.69759954 -0.1841262 276.52258569 -0.18817699 C288.12611175 -0.19091275 299.7296021 -0.19953401 311.33311716 -0.21583293 C319.3044692 -0.22645535 327.27580294 -0.2295888 335.24716153 -0.22700275 C339.83701648 -0.2257296 344.42680933 -0.22759525 349.01665306 -0.23841095 C393.9821679 -0.33909569 393.9821679 -0.33909569 413.5625 4.1875 C414.5102832 4.40180664 415.45806641 4.61611328 416.43457031 4.83691406 C463.7951239 16.00193953 506.21154126 46.10391002 531.85546875 87.546875 C558.57648299 131.92759213 566.32855184 182.9611777 554.47265625 233.29296875 C542.3108404 281.99779315 510.44556145 322.87601807 467.6875 348.62890625 C435.21594057 367.63331366 400.00799035 374.19823782 362.80787659 374.12025452 C361.23163124 374.12069174 359.65538597 374.12156942 358.07914108 374.12284368 C353.79182536 374.12505894 349.50453506 374.1211085 345.21722257 374.11606562 C340.5773611 374.11171822 335.93750088 374.11321057 331.29763794 374.1139679 C323.27335334 374.11449043 315.24907693 374.111372 307.22479439 374.10573006 C295.62324883 374.09757824 284.0217072 374.09499607 272.42015909 374.09374207 C253.59415005 374.09155732 234.76814536 374.08491291 215.94213867 374.07543945 C197.66219097 374.06625039 179.38224446 374.05918834 161.10229492 374.05493164 C159.96268124 374.05466364 158.82306755 374.05439565 157.64892012 374.05411953 C148.73544425 374.05203992 139.82196835 374.05008306 130.90849245 374.04816496 C87.2723243 374.03874349 43.63616706 374.01862229 0 374 C0 250.58 0 127.16 0 0 Z " fill="#000000" transform="translate(108,111)"/>
<path d="M0 0 C97.31506404 -0.12099405 97.31506404 -0.12099405 138.01171875 -0.14648438 C147.32600928 -0.15235752 156.64029965 -0.15841883 165.95458984 -0.16479492 C167.12189845 -0.16558617 168.28920705 -0.16637741 169.49188864 -0.16719264 C188.3088933 -0.18022158 207.12587031 -0.20386254 225.94285861 -0.23145839 C245.27068556 -0.25956587 264.59849808 -0.27618754 283.92634463 -0.28226548 C295.84159317 -0.28637086 307.75676357 -0.29931227 319.67198804 -0.3237494 C327.85545421 -0.33967262 336.0388803 -0.34438553 344.22236082 -0.34050413 C348.93566221 -0.33859279 353.64882755 -0.34141152 358.36210442 -0.35761642 C404.7978722 -0.50915241 448.45096323 7.51485386 486 37 C486.86496094 37.64453125 487.72992188 38.2890625 488.62109375 38.953125 C526.16676551 67.98387273 551.14139082 111.63483226 558.25 158.4375 C558.52026765 160.62258848 558.77117353 162.81018387 559 165 C559.11085938 166.05058594 559.22171875 167.10117187 559.3359375 168.18359375 C563.76727412 217.10794539 549.53176191 266.68961142 518.05859375 304.640625 C513.80085495 309.52046225 509.43501575 314.28203814 505 319 C504.37867188 319.68707031 503.75734375 320.37414062 503.1171875 321.08203125 C473.8722023 352.22859621 427.97413177 370.28588165 386 373 C380.67404694 373.13755114 375.35033167 373.13112379 370.02314758 373.12025452 C368.42148086 373.12069125 366.81981421 373.12156802 365.21814793 373.12284368 C360.84198405 373.12506867 356.46584487 373.12109482 352.08968413 373.11606562 C347.36113529 373.11173252 342.63258775 373.11320957 337.90403748 373.1139679 C329.7198027 373.11449132 321.53557592 373.11136348 313.35134315 373.10573006 C301.51842999 373.09759047 289.68552067 373.09499732 277.85260501 373.09374207 C258.65279243 373.09155541 239.4529841 373.0849058 220.25317383 373.07543945 C201.60636414 373.06625534 182.95955563 373.05919086 164.31274414 373.05493164 C163.15093594 373.05466364 161.98912775 373.05439565 160.79211324 373.05411953 C151.70551922 373.05204001 142.61892517 373.05008312 133.53233111 373.04816496 C89.02155016 373.03873748 44.51077988 373.0186177 0 373 C0 249.91 0 126.82 0 0 Z " fill="#000000" transform="translate(15,577)"/>
<path d="M0 0 C33.99 0 67.98 0 103 0 C106.96 6.6 110.92 13.2 115 20 C117.07345905 23.38227144 119.15022912 26.75945174 121.25 30.125 C122.33888876 31.87738854 123.42741246 33.63000396 124.515625 35.3828125 C125.35770508 36.73874512 125.35770508 36.73874512 126.21679688 38.12207031 C129.4911262 43.40654377 132.74437674 48.70398969 136 54 C140.82139464 61.84077301 145.65098489 69.67627737 150.5 77.5 C156.03912863 86.43719757 161.55087207 95.3910766 167.05859375 104.34765625 C171.19477581 111.0719292 175.34110076 117.78975609 179.5 124.5 C185.03912863 133.43719757 190.55087207 142.3910766 196.05859375 151.34765625 C200.71097362 158.91112218 205.37807187 166.46527923 210.05761719 174.01196289 C213.06486832 178.86465699 216.06093736 183.72400135 219.046875 188.58984375 C219.7519523 189.73828176 220.45703042 190.88671926 221.16210938 192.03515625 C222.50322014 194.22057715 223.84316419 196.40671469 225.18164062 198.59375 C230.01651481 206.47096005 234.99876639 214.22030327 240 222 C240.495 112.11 240.495 112.11 241 0 C268.72 0 296.44 0 325 0 C325 123.09 325 246.18 325 373 C295.63 373 266.26 373 236 373 C231.54213442 366.63162061 227.34371196 360.42219901 223.4375 353.75 C217.40242633 343.56918527 211.06761831 333.59546184 204.68310547 323.63134766 C194.34556438 307.46975528 184.2216247 291.17201295 174.06347656 274.89746094 C167.72995992 264.75166063 161.39528868 254.60701335 155 244.5 C148.60014247 234.38576612 142.26124107 224.23370157 135.92333984 214.08056641 C132.78410778 209.05253516 129.64196553 204.02632342 126.5 199 C122.71334447 192.94234112 118.92739003 186.88424953 115.14453125 180.82421875 C105.16414792 164.83914033 95.11741352 148.89879267 85 133 C84.67 212.2 84.34 291.4 84 373 C56.28 373 28.56 373 0 373 C0 249.91 0 126.82 0 0 Z " fill="#000000" transform="translate(2662,577)"/>
<path d="M0 0 C0.7686438 -0.00701431 1.5372876 -0.01402863 2.32922363 -0.02125549 C4.80027194 -0.0386671 7.27108007 -0.0451092 9.7421875 -0.046875 C11.01240753 -0.04788712 11.01240753 -0.04788712 12.30828857 -0.04891968 C62.80692943 0.01489997 108.59976192 16.37013687 145.2421875 51.515625 C163.80674407 70.62419787 180.19088609 96.64531653 184.6171875 123.203125 C157.5571875 130.463125 130.4971875 137.723125 102.6171875 145.203125 C100.05556615 142.64150365 99.59835795 140.40313912 98.4921875 136.953125 C93.8745606 123.49813505 86.66615442 113.13334489 76.6171875 103.203125 C75.96105469 102.53667969 75.30492187 101.87023437 74.62890625 101.18359375 C56.77697014 84.24910189 30.39252683 79.09501254 6.6171875 79.203125 C-15.95238479 80.09488923 -37.18338163 86.68064284 -55.3828125 100.203125 C-56.30578125 100.86828125 -57.22875 101.5334375 -58.1796875 102.21875 C-80.87573899 119.52929774 -91.5907721 146.90337935 -95.69970703 174.31738281 C-99.97198691 207.93006067 -93.94496892 242.90258562 -73.9453125 270.640625 C-55.96368204 293.32657186 -30.97781822 305.90045081 -2.43164062 309.30688477 C23.96408558 311.98453741 53.80282864 307.91775065 75.20068359 290.94726562 C87.34891131 280.77050913 95.22222626 269.58548934 99.6171875 254.203125 C59.6871875 254.203125 19.7571875 254.203125 -21.3828125 254.203125 C-21.3828125 230.113125 -21.3828125 206.023125 -21.3828125 181.203125 C47.9171875 181.203125 117.2171875 181.203125 188.6171875 181.203125 C200.10276785 215.65986606 187.06853821 265.60701342 171.6796875 296.703125 C167.83181995 304.24081752 163.65712726 311.38935169 158.6171875 318.203125 C158.04460205 318.99348145 158.04460205 318.99348145 157.46044922 319.79980469 C142.10103985 340.87220252 122.78848524 357.34100373 99.6171875 369.203125 C99.00020996 369.52120117 98.38323242 369.83927734 97.74755859 370.16699219 C51.68053578 393.59837185 -5.06467504 394.71433588 -53.81445312 379.40161133 C-82.38661594 369.98743833 -106.63187964 354.90804411 -128.3828125 334.203125 C-129.13949219 333.51089844 -129.89617188 332.81867188 -130.67578125 332.10546875 C-141.81162376 321.57814222 -150.84081767 308.4783279 -158.3828125 295.203125 C-159.03636719 294.08164062 -159.68992187 292.96015625 -160.36328125 291.8046875 C-186.01380019 246.69130203 -189.88229382 189.1078616 -176.87890625 139.44921875 C-166.4291844 101.79211848 -144.65055444 66.1343018 -113.3828125 42.203125 C-112.37734375 41.39359375 -111.371875 40.5840625 -110.3359375 39.75 C-79.80692044 15.30043579 -39.22135964 0.24223391 0 0 Z " fill="#000000" transform="translate(916.3828125,568.796875)"/>
<path d="M0 0 C18.65643268 -0.70242593 36.78489679 5.59682782 51.28125 17.21484375 C51.97476562 17.7459375 52.66828125 18.27703125 53.3828125 18.82421875 C66.70541314 29.62632737 74.98674297 46.37058889 77.28125 63.21484375 C78.9818221 81.96127914 76.27306834 100.87996287 64.34375 116.08984375 C62.02015291 118.94132684 62.02015291 118.94132684 62.40307617 121.7265625 C63.65134687 126.68494217 65.44600387 131.37980424 67.26953125 136.15234375 C67.67977539 137.23977371 68.09001953 138.32720367 68.51269531 139.44758606 C69.40198326 141.80324179 70.29373051 144.15797025 71.18765259 146.51187134 C72.61270957 150.26477398 74.03167315 154.01991935 75.44799805 157.77612305 C75.68741277 158.41105651 75.92682749 159.04598997 76.1734972 159.70016384 C76.66131925 160.99397782 77.14910728 162.28780462 77.6368618 163.58164406 C78.3799327 165.55214318 79.12367031 167.52238968 79.86750793 169.49259949 C84.83292816 182.6498759 89.71934633 195.83610295 94.59375 209.02734375 C96.25103961 213.50921167 97.90873894 217.99092802 99.56640625 222.47265625 C100.16588829 224.09378578 100.16588829 224.09378578 100.77748108 225.74766541 C104.68206757 236.30419189 108.60391863 246.85426113 112.53125 257.40234375 C112.85461334 258.27089996 113.17797668 259.13945618 113.51113892 260.03433228 C115.12240672 264.3620126 116.7339743 268.6895812 118.34570312 273.01708984 C121.32467487 281.01614571 124.30080317 289.0162597 127.27722168 297.01626587 C128.94512185 301.49916582 130.6131944 305.98200163 132.28125 310.46484375 C132.9479175 312.25651011 133.61458416 314.04817677 134.28125 315.83984375 C134.61125 316.72671875 134.94125 317.61359375 135.28125 318.52734375 C136.28125 321.21484375 137.28125 323.90234375 138.28125 326.58984375 C138.61126511 327.47675903 138.94128021 328.36367432 139.28129578 329.27746582 C139.94781069 331.06872528 140.61432477 332.85998504 141.28083801 334.65124512 C142.94981973 339.13664464 144.618816 343.62203875 146.2878418 348.10742188 C149.26016656 356.09536661 152.23240537 364.08334325 155.20407104 372.0715332 C156.50704847 375.57407532 157.81009232 379.07659272 159.11315918 382.57910156 C159.76446194 384.3297463 160.41574787 386.08039729 161.0670166 387.83105469 C165.16475797 398.84575072 169.26615308 409.85907862 173.37109375 420.87109375 C174.23787484 423.1966144 175.10465544 425.52213523 175.97143555 427.84765625 C177.64297465 432.33221737 179.31510006 436.8165593 180.98754883 441.30078125 C181.75734397 443.36587806 182.52712027 445.43098188 183.296875 447.49609375 C183.64100937 448.41829712 183.98514374 449.34050049 184.33970642 450.29064941 C185.32351454 452.93083738 186.30261473 455.57273464 187.28125 458.21484375 C187.84386536 459.72002563 187.84386536 459.72002563 188.41784668 461.25561523 C188.78494751 462.24698486 189.15204834 463.23835449 189.53027344 464.25976562 C190.0332193 465.61128723 190.0332193 465.61128723 190.54632568 466.9901123 C191.28125 469.21484375 191.28125 469.21484375 191.28125 471.21484375 C161.25125 471.21484375 131.22125 471.21484375 100.28125 471.21484375 C95.78152953 461.0904727 95.78152953 461.0904727 94.03881836 456.08764648 C93.64838852 454.97296494 93.25795868 453.85828339 92.85569763 452.70982361 C92.44827835 451.53456619 92.04085907 450.35930878 91.62109375 449.1484375 C90.96224381 447.26353248 90.30339317 445.37862772 89.64450169 443.49373722 C88.73075024 440.87667721 87.8205144 438.25839986 86.91021729 435.64013672 C85.31462801 431.05322247 83.71327022 426.46831863 82.11219788 421.88331604 C81.26276082 419.44964453 80.41458394 417.0155327 79.56785583 414.58091736 C79.18057816 413.46938797 78.79330048 412.35785858 78.39428711 411.21264648 C78.05771591 410.24495834 77.72114471 409.2772702 77.37437439 408.28025818 C76.05344134 404.57600707 74.66212258 400.89717064 73.28125 397.21484375 C2.49625 396.71984375 2.49625 396.71984375 -69.71875 396.21484375 C-70.70875 399.51484375 -71.69875 402.81484375 -72.71875 406.21484375 C-73.37547009 408.19315237 -74.04667262 410.16678684 -74.73999023 412.13256836 C-75.10724716 413.17742905 -75.47450409 414.22228973 -75.85289001 415.29881287 C-76.24045975 416.3938765 -76.62802948 417.48894012 -77.02734375 418.6171875 C-77.43533707 419.77553604 -77.84333038 420.93388458 -78.26368713 422.12733459 C-79.55904196 425.80310565 -80.85766047 429.4777144 -82.15625 433.15234375 C-83.02428911 435.61516369 -83.89212945 438.0780537 -84.75976562 440.54101562 C-85.59878027 442.92063571 -86.43796729 445.30019502 -87.27734375 447.6796875 C-87.66288925 448.7727269 -88.04843475 449.8657663 -88.44566345 450.9919281 C-88.81607254 452.03994095 -89.18648163 453.0879538 -89.56811523 454.16772461 C-89.88771713 455.07244003 -90.20731903 455.97715546 -90.53660583 456.9092865 C-92.24445357 461.6848364 -93.98551554 466.44844899 -95.71875 471.21484375 C-125.08875 471.21484375 -154.45875 471.21484375 -184.71875 471.21484375 C-176.6745687 448.23146862 -176.6745687 448.23146862 -172.69921875 437.6875 C-172.24759872 436.48414001 -171.7959787 435.28078003 -171.33067322 434.04095459 C-170.11269459 430.79589738 -168.89194063 427.55189122 -167.67057037 424.30810928 C-166.35610129 420.8156229 -165.04423617 417.3221583 -163.73193359 413.82885742 C-160.6749874 405.69324456 -157.61365653 397.55928529 -154.55118561 389.42575073 C-153.73055113 387.24618695 -152.91002675 385.06658175 -152.08953857 382.88696289 C-145.6131094 365.68267287 -139.13063565 348.48066482 -132.64479065 331.27992249 C-128.83225484 321.16885719 -125.02105339 311.05728993 -121.2109375 300.9453125 C-120.94281691 300.23372986 -120.67469631 299.52214722 -120.39845085 298.78900146 C-118.77498015 294.48034585 -117.15155152 290.17167439 -115.52813339 285.86299896 C-113.10606717 279.43468052 -110.68391105 273.00639594 -108.26171875 266.578125 C-107.99491869 265.87005707 -107.72811863 265.16198914 -107.45323372 264.4324646 C-103.53503493 254.03392534 -99.61585889 243.63575476 -95.6961937 233.23776817 C-80.44828906 192.79360668 -80.44828906 192.79360668 -65.25512695 152.32885742 C-64.98871902 151.61844803 -64.7223111 150.90803864 -64.4478302 150.17610168 C-63.9411482 148.82147237 -63.43664447 147.46602575 -62.93461609 146.10966492 C-61.65240663 142.65361769 -60.32447702 139.2241581 -58.93164062 135.81103516 C-58.64230652 135.08608353 -58.35297241 134.3611319 -58.05487061 133.61421204 C-57.50316994 132.23465399 -56.93823384 130.86028581 -56.35772705 129.49259949 C-55.13329203 126.3945995 -54.60556977 124.6358684 -55.48242188 121.37402344 C-56.67820133 119.28565978 -57.93079034 117.50037592 -59.46875 115.65234375 C-71.633878 99.82875427 -74.27570092 80.69093592 -72.328125 61.33203125 C-70.10249025 47.89262139 -63.88429749 35.30283392 -54.71875 25.21484375 C-54.06519531 24.46976563 -53.41164063 23.7246875 -52.73828125 22.95703125 C-38.78344794 7.9600337 -19.93763492 1.57553149 0 0 Z M2.28125 194.21484375 C2.0219722 194.94922668 1.7626944 195.68360962 1.49555969 196.44024658 C-20.72518599 259.3721173 -20.72518599 259.3721173 -28.15625 279.90234375 C-28.53568756 280.95098602 -28.53568756 280.95098602 -28.92279053 282.02081299 C-31.35776627 288.74603136 -33.80866135 295.46533037 -36.2734375 302.1796875 C-36.85266968 303.76100464 -36.85266968 303.76100464 -37.44360352 305.37426758 C-38.13880841 307.26981278 -38.83692808 309.16429315 -39.53881836 311.05737305 C-41.13082116 315.03021007 -41.13082116 315.03021007 -41.71875 319.21484375 C-12.67875 319.21484375 16.36125 319.21484375 46.28125 319.21484375 C45.55995226 315.60835505 44.78662715 312.51848987 43.6015625 309.0847168 C43.25548447 308.077108 42.90940643 307.06949921 42.55284119 306.03135681 C42.17446609 304.94077469 41.796091 303.85019257 41.40625 302.7265625 C41.00954605 301.57551529 40.6128421 300.42446808 40.20411682 299.23854065 C39.12426792 296.10861411 38.0413625 292.97978115 36.95671463 289.85151672 C36.28080378 287.90105609 35.60612149 285.95017489 34.93185425 283.99914551 C26.18432895 258.68958804 17.28054137 233.43597386 8.28125 208.21484375 C8.01479675 207.46807373 7.74834351 206.72130371 7.47381592 205.9519043 C6.07742814 202.03914505 4.67995892 198.12677397 3.28125 194.21484375 C2.95125 194.21484375 2.62125 194.21484375 2.28125 194.21484375 Z " fill="#000000" transform="translate(1203.71875,12.78515625)"/>
<path d="M0 0 C167.55763937 0 167.55763937 0 189.875 5.75 C191.41111938 6.13406006 191.41111938 6.13406006 192.97827148 6.52587891 C219.00201519 13.25018243 243.77152548 25.12853062 264 43 C264.48952148 43.42394043 264.97904297 43.84788086 265.48339844 44.28466797 C272.78740936 50.62299324 279.12619144 57.27887312 285 65 C285.98033203 66.25683594 285.98033203 66.25683594 286.98046875 67.5390625 C319.08966507 109.96678299 327.91917841 166.2390392 321.40234375 218.13574219 C317.2543452 247.66506195 308.19887055 277.91831875 290 302 C289.61440918 302.52787109 289.22881836 303.05574219 288.83154297 303.59960938 C273.67138399 324.32187151 254.80889125 340.29558919 232 352 C231.09846191 352.46913818 231.09846191 352.46913818 230.17871094 352.94775391 C215.67370827 360.40712856 200.13996144 365.29058069 184.25 368.8125 C183.37730469 369.00730957 182.50460938 369.20211914 181.60546875 369.40283203 C122.33838358 381.78651054 60.54703029 373 0 373 C0 249.91 0 126.82 0 0 Z M84 79 C84 149.95 84 220.9 84 294 C127.75652562 296.0336959 127.75652562 296.0336959 171.125 288.375 C171.8567041 288.12194092 172.5884082 287.86888184 173.34228516 287.6081543 C186.9471562 282.66931946 197.94404669 275.32692212 208 265 C209.10601563 263.89011719 209.10601563 263.89011719 210.234375 262.7578125 C224.14750641 248.0357781 231.04632762 228.74416382 234 209 C234.18304687 207.8140625 234.36609375 206.628125 234.5546875 205.40625 C238.09970565 175.87504594 234.03607197 141.51354397 215.5625 117.125 C214.38883079 115.73817563 213.2009292 114.36328658 212 113 C211.35804688 112.20464844 210.71609375 111.40929687 210.0546875 110.58984375 C192.0118286 89.05159706 166.9047668 82.84353811 140 79 C121.52 79 103.04 79 84 79 Z " fill="#000000" transform="translate(2308,111)"/>
<path d="M0 0 C195.65778487 0 195.65778487 0 228.953125 30.92578125 C247.25082985 49.46792109 255.85883437 74.08699008 256.3125 99.8125 C255.74140346 122.01387791 248.92329607 142.31304167 234 159 C233.24976563 159.84433594 232.49953125 160.68867188 231.7265625 161.55859375 C223.96659944 169.80826322 215.12902288 175.04163102 205 180 C206.38058594 180.49306641 206.38058594 180.49306641 207.7890625 180.99609375 C232.22770186 190.04298049 249.1130031 205.75585794 260.49609375 229.3671875 C270.83862054 254.35043404 269.78834188 284.35288898 259.6640625 309.17578125 C248.70590991 334.87633628 228.58942243 353.71245977 202.90917969 364.25048828 C142.11829259 388.11596442 47.22687165 373 0 373 C0 249.91 0 126.82 0 0 Z M81 70 C81 96.07 81 122.14 81 149 C89.641875 149.061875 98.28375 149.12375 107.1875 149.1875 C111.23874146 149.22846802 111.23874146 149.22846802 115.37182617 149.27026367 C117.55386918 149.2790396 119.73591716 149.2866809 121.91796875 149.29296875 C123.01741821 149.30831665 124.11686768 149.32366455 125.24963379 149.33947754 C139.52298217 149.34420434 152.68933515 146.13673664 163.375 136.25 C171.90492494 127.14207193 173.47400692 117.3397519 173.28515625 105.3515625 C172.86194448 95.53900409 168.50289919 87.19442959 161.5 80.4375 C150.55141321 71.22192974 136.82461077 69.68157529 123.08984375 69.8046875 C122.0177063 69.80670166 120.94556885 69.80871582 119.84094238 69.81079102 C115.87308413 69.82117845 111.90528732 69.84910046 107.9375 69.875 C99.048125 69.91625 90.15875 69.9575 81 70 Z M81 218 C81 246.71 81 275.42 81 305 C94.179375 305.061875 94.179375 305.061875 107.625 305.125 C110.36893066 305.14320801 113.11286133 305.16141602 115.93994141 305.18017578 C118.16047979 305.18602721 120.38102036 305.19112122 122.6015625 305.1953125 C124.27545044 305.2106604 124.27545044 305.2106604 125.9831543 305.22631836 C142.52679677 305.22990467 160.97129325 303.01138601 173.26171875 290.7421875 C181.97315566 280.46881088 184.97534138 269.31784315 184 256 C182.03983858 244.77923343 177.13557634 235.01201803 168 228 C153.40491735 219.3485391 139.7482897 217.82690862 122.9921875 217.90234375 C121.38549194 217.90385437 121.38549194 217.90385437 119.74633789 217.90539551 C115.78921419 217.91058196 111.83210589 217.9245428 107.875 217.9375 C94.571875 217.9684375 94.571875 217.9684375 81 218 Z " fill="#000000" transform="translate(755,111)"/>
<path d="M0 0 C175.05913141 0 175.05913141 0 192.6875 6.1875 C193.56341797 6.48938232 194.43933594 6.79126465 195.34179688 7.10229492 C223.47786885 17.13876317 245.31395533 37.5351896 258.3125 64.3125 C271.99778105 93.91829085 272.61319631 128.50419121 261.91015625 159.1171875 C257.16943484 171.15255431 250.6351091 182.35539074 242 192 C241.20078125 192.89332031 240.4015625 193.78664063 239.578125 194.70703125 C228.15184446 206.79252028 212.83737192 216.72087603 197 222 C198.49807683 227.07659521 200.70683204 231.44446282 203.21630859 236.06811523 C207.53647902 244.15725957 211.71644734 252.31040081 215.82666016 260.50805664 C216.13020566 261.11315689 216.43375116 261.71825714 216.74649501 262.34169376 C218.67799193 266.19316573 220.60634623 270.04620404 222.53354311 273.89982915 C223.54993603 275.93189561 224.56690076 277.96367488 225.58405685 279.99535942 C229.13925118 287.09657653 232.69244412 294.19879064 236.24365234 301.30200195 C239.54730159 307.90990639 242.85545596 314.51554222 246.16561663 321.12018687 C249.02214269 326.82019389 251.8756073 332.52172634 254.72666013 338.22447294 C256.42375185 341.61891128 258.12207968 345.01271708 259.8235054 348.40498543 C261.70921858 352.16499194 263.58856238 355.9281462 265.46728516 359.69165039 C266.0313205 360.81410156 266.59535583 361.93655273 267.17648315 363.09301758 C267.68370911 364.11166397 268.19093506 365.13031036 268.71353149 366.17982483 C269.15775263 367.06772233 269.60197376 367.95561983 270.05965614 368.87042332 C271 371 271 371 271 373 C240.31 373 209.62 373 178 373 C170.59074154 357.65225034 163.18384872 342.30788294 155.83984375 326.9296875 C152.59867398 320.15280077 149.33088759 313.38878656 146.0625 306.625 C140.67951513 295.48473975 135.31331847 284.33656624 129.96484375 273.1796875 C127.87862981 268.82834144 125.78661464 264.47983464 123.69140625 260.1328125 C123.14693848 259.00198242 122.6024707 257.87115234 122.04150391 256.70605469 C121.00199057 254.54728452 119.96136964 252.3890472 118.91943359 250.23144531 C118.44973145 249.25530273 117.9800293 248.27916016 117.49609375 247.2734375 C117.08544678 246.42185059 116.6747998 245.57026367 116.25170898 244.69287109 C114.76456253 241.49349028 113.38979519 238.24285545 112 235 C102.76 234.67 93.52 234.34 84 234 C84 279.87 84 325.74 84 373 C56.28 373 28.56 373 0 373 C0 249.91 0 126.82 0 0 Z M84 73 C84 102.37 84 131.74 84 162 C97.1484375 162.0928125 97.1484375 162.0928125 110.5625 162.1875 C114.66473999 162.22846802 114.66473999 162.22846802 118.84985352 162.27026367 C138.87732882 162.38820296 157.67113588 161.87978307 173.03125 147.1875 C181.17060747 138.14376947 184.69991595 126.95798627 184.28125 114.8515625 C183.07979516 102.6701454 179.19344915 92.06982954 170.09765625 83.59375 C158.1179834 74.49187565 144.32691031 72.52516475 129.703125 72.70703125 C128.53571777 72.71005249 127.36831055 72.71307373 126.16552734 72.71618652 C121.8602599 72.73172446 117.5551198 72.77360661 113.25 72.8125 C103.5975 72.874375 93.945 72.93625 84 73 Z " fill="#000000" transform="translate(1147,577)"/>
<path d="M0 0 C32.01 0 64.02 0 97 0 C102.74588564 13.79012554 102.74588564 13.79012554 105.20703125 20.41015625 C105.48896835 21.16294861 105.77090546 21.91574097 106.06138611 22.69134521 C106.98062108 25.14758185 107.89661458 27.60501263 108.8125 30.0625 C109.47347294 31.83103307 110.13460961 33.59950495 110.79589844 35.36791992 C112.86749287 40.91062107 114.93426497 46.45511286 117 52 C117.32522644 52.87277588 117.65045288 53.74555176 117.98553467 54.64477539 C121.58686825 64.30985014 125.18330569 73.97674151 128.77734375 83.64453125 C133.28325467 95.7651851 137.79750852 107.88272632 142.3125 120 C143.11336693 122.14949384 143.91422955 124.29898929 144.71508789 126.44848633 C147.14329782 132.96569262 149.57163702 139.48285074 152 146 C155.22928138 154.66662393 158.45848995 163.33327498 161.6875 172 C162.08393707 173.06404053 162.48037415 174.12808105 162.88882446 175.22436523 C168.58648498 190.51734358 174.27996531 205.81187202 179.97006226 221.10766602 C186.28175253 238.07411087 192.60087531 255.03778263 198.92260742 272.00048828 C202.7096004 282.16265195 206.49406477 292.32573522 210.26953125 302.4921875 C211.28654398 305.2300193 212.30363482 307.96782205 213.32080078 310.70559692 C213.9773496 312.47286002 214.63376428 314.24017296 215.29003906 316.00753784 C218.86253381 325.62562827 222.45871584 335.23401186 226.10546875 344.82421875 C226.43605789 345.69423523 226.76664703 346.56425171 227.10725403 347.46063232 C228.67899984 351.59527282 230.25471352 355.72832913 231.8371582 359.85888672 C232.39152789 361.31344261 232.94581354 362.76803054 233.5 364.22265625 C233.8830555 365.21612312 233.8830555 365.21612312 234.27384949 366.22966003 C236 370.77338426 236 370.77338426 236 373 C205.64 373 175.28 373 144 373 C136.0625 350.5625 136.0625 350.5625 133.50048828 343.32006836 C128.7177989 329.80609528 128.7177989 329.80609528 123.8671875 316.31640625 C123.44429443 315.14972412 123.02140137 313.98304199 122.58569336 312.78100586 C121.83949401 310.7299493 121.09046438 308.67991943 120.33813477 306.63110352 C120.01901123 305.75510498 119.6998877 304.87910645 119.37109375 303.9765625 C118.9678186 302.87948975 118.9678186 302.87948975 118.55639648 301.76025391 C118 300 118 300 118 298 C70.81 298.33 23.62 298.66 -25 299 C-38.09183919 335.46746692 -38.09183919 335.46746692 -51 372 C-52.81115624 373.81115624 -55.29877501 373.11995376 -57.70901489 373.12442017 C-58.93791946 373.11902725 -58.93791946 373.11902725 -60.19165039 373.11352539 C-61.05011063 373.11367142 -61.90857086 373.11381744 -62.79304504 373.1139679 C-65.64460738 373.11326847 -68.49610525 373.1054747 -71.34765625 373.09765625 C-73.31920842 373.09579218 -75.29076105 373.09436822 -77.26231384 373.09336853 C-82.46226267 373.08954251 -87.66218375 373.07971152 -92.86212158 373.06866455 C-98.16393661 373.05845222 -103.4657561 373.05387129 -108.76757812 373.04882812 C-119.17839763 373.03808933 -129.58919651 373.02101191 -140 373 C-138.208916 366.83446151 -136.27544358 360.77087877 -134.015625 354.76171875 C-133.72807343 353.98940414 -133.44052185 353.21708954 -133.14425659 352.42137146 C-132.18279267 349.84217335 -131.21650034 347.26481466 -130.25 344.6875 C-129.54524766 342.80133024 -128.84066326 340.91509772 -128.13623047 339.02880859 C-119.9475953 317.1226388 -111.68209198 295.24520487 -103.42214394 273.36584663 C-97.88094159 258.68801838 -92.34827245 244.00698035 -86.81707764 229.32537842 C-85.17976138 224.97940832 -83.54229085 220.63349637 -81.90478516 216.28759766 C-79.97815957 211.17436859 -78.05155155 206.06113291 -76.12498474 200.9478817 C-72.85006069 192.25599601 -69.5749799 183.56416939 -66.29979706 174.87238121 C-65.48804762 172.71812999 -64.67630477 170.56387629 -63.86456299 168.40962219 C-61.43467385 161.9610463 -59.00473329 155.5124898 -56.57458496 149.06401157 C-55.22547331 145.48409241 -53.87639896 141.90415919 -52.52734375 138.32421875 C-52.26005211 137.61491903 -51.99276047 136.90561932 -51.71736908 136.17482567 C-47.8429551 125.89324802 -43.97065513 115.61087593 -40.09949303 105.3280735 C-29.74035058 77.81218482 -19.37436375 50.29902477 -8.9375 22.8125 C-8.53105255 21.74117828 -8.1246051 20.66985657 -7.70584106 19.56607056 C-6.58502282 16.61260705 -5.46273561 13.6597069 -4.33984375 10.70703125 C-4.01204926 9.84299683 -3.68425476 8.9789624 -3.3465271 8.08874512 C-1.11537037 2.23074074 -1.11537037 2.23074074 0 0 Z M47 95 C37.82554153 120.17635804 28.8707297 145.42962011 19.9562273 170.69891644 C18.99209112 173.43151527 18.02734959 176.16390009 17.06241035 178.89621544 C16.59344182 180.22444274 16.12470348 181.55275134 15.65620232 182.88114357 C13.31372077 189.52150381 10.95428469 196.15457824 8.52197266 202.76269531 C8.14446365 203.78891998 7.76695465 204.81514465 7.37800598 205.87246704 C6.6814995 207.75826448 5.98068891 209.64248024 5.27470398 211.52474976 C4.97175919 212.34367706 4.66881439 213.16260437 4.35668945 214.00634766 C4.0927388 214.7110318 3.82878815 215.41571594 3.55683899 216.14175415 C2.85647616 218.15564426 2.85647616 218.15564426 3 221 C32.04 221 61.08 221 91 221 C89.07626167 214.5875389 87.11857676 208.23751372 84.953125 201.91015625 C84.66521591 201.06457153 84.37730682 200.21898682 84.08067322 199.34777832 C83.13920093 196.58530228 82.19477002 193.8238498 81.25 191.0625 C80.92319244 190.10536102 80.59638489 189.14822205 80.25967407 188.16207886 C74.37664886 170.93315571 68.3977613 153.73836388 62.38633728 136.55389404 C62.0861116 135.69564026 61.78588593 134.83738647 61.4765625 133.953125 C61.18145279 133.1095343 60.88634308 132.2659436 60.58229065 131.39678955 C56.34602338 119.27912048 52.16967619 107.14071966 48 95 C47.67 95 47.34 95 47 95 Z " fill="#000000" transform="translate(2050,111)"/>
<path d="M0 0 C27.72 0 55.44 0 84 0 C84.01458252 7.28263916 84.02916504 14.56527832 84.04418945 22.06860352 C84.09302558 45.41388141 84.15645636 68.75909647 84.22898628 92.10431174 C84.24025342 95.73514954 84.25139204 99.36598773 84.26245117 102.99682617 C84.26465486 103.7196109 84.26685854 104.44239564 84.269129 105.18708294 C84.30442818 116.8651849 84.32933386 128.5432868 84.35034702 140.2214222 C84.37216805 152.21887874 84.40527781 164.2162665 84.44870156 176.21366447 C84.47275027 182.9462648 84.49171568 189.67879702 84.49761391 196.4114399 C84.50368622 202.7569932 84.5237637 209.10235264 84.55427551 215.44783401 C84.56302136 217.76843988 84.56678554 220.0890711 84.56500816 222.40969276 C84.55337246 244.62496771 86.27784269 264.75553856 102 282 C105.15187947 284.70788406 108.41436039 286.90984883 112 289 C112.60972656 289.38542969 113.21945312 289.77085937 113.84765625 290.16796875 C129.50447842 299.14913488 151.66380101 299.60025472 168.8125 295.375 C183.16358597 291.11568079 194.77360856 283.02449331 202.46875 270.01171875 C211.24399635 252.75224187 211.30175582 235.40496222 211.31884766 216.49291992 C211.32815815 214.12649701 211.33832848 211.76007735 211.34928894 209.3936615 C211.3764765 203.00208006 211.39170491 196.61052053 211.40471697 190.21889663 C211.41880592 184.20610353 211.4419324 178.1933506 211.46498732 172.18058697 C211.51032483 160.28048452 211.54699317 148.38037208 211.578125 136.48022461 C211.60836421 124.92844898 211.64273893 113.37669772 211.68261719 101.82495117 C211.68507874 101.11148764 211.68754028 100.39802411 211.69007643 99.66294046 C211.70245207 96.08328138 211.7149084 92.50362257 211.72740483 88.9239639 C211.83077711 59.28267419 211.91843197 29.64135945 212 0 C239.72 0 267.44 0 296 0 C296.0441719 31.54213347 296.08106896 63.08423685 296.10213066 94.62639164 C296.10463178 98.35851245 296.10722045 102.09063319 296.10986328 105.82275391 C296.11065021 106.93715206 296.11065021 106.93715206 296.11145304 108.07406332 C296.12013245 120.07025304 296.13588871 132.0664234 296.15430559 144.06260167 C296.17307346 156.39112267 296.18413121 168.7196336 296.18817699 181.0481683 C296.19090783 188.64259068 296.19950188 196.23695831 296.21583293 203.83136381 C296.2277525 209.67548436 296.2288941 215.5195706 296.22621536 221.36370087 C296.22676157 223.74595347 296.23068566 226.12820832 296.23841095 228.51044846 C296.29059818 245.44684514 295.89495509 262.16814089 291.75 278.6875 C291.53311523 279.56631836 291.31623047 280.44513672 291.09277344 281.35058594 C282.60339002 314.45072811 262.18323219 342.260743 233 360 C232.08831055 360.5580835 232.08831055 360.5580835 231.15820312 361.12744141 C206.31138871 376.03957677 176.953858 381.46090925 148.3125 381.3125 C147.57498505 381.31067719 146.83747009 381.30885437 146.0776062 381.30697632 C109.95219511 381.15744214 73.99375986 371.68149903 46 348 C44.50919922 346.77216797 44.50919922 346.77216797 42.98828125 345.51953125 C16.43904258 322.57960085 2.62069355 288.48521502 0 254 C-0.35421294 245.62862334 -0.25369061 237.24400166 -0.22705078 228.8671875 C-0.22648567 226.36239629 -0.22680518 223.85760474 -0.22793579 221.35281372 C-0.22838867 215.99136854 -0.22278039  210.62998402 -0.21146011 205.26855469 C-0.19510433 197.51713913 -0.18998688 189.76574702 -0.18748413 182.01431608 C-0.18312271 169.43368426 -0.16985607 156.85307859 -0.15087891 144.27246094 C-0.13247968 132.0621758 -0.11834304 119.8518978 -0.10986328 107.64160156 C-0.10933783 106.88710826 -0.10881239 106.13261496 -0.10827102 105.35525823 C-0.10566067 101.56963432 -0.10313332 97.78401037 -0.10064721 93.99838638 C-0.07996314 62.66556774 -0.04311975 31.3327978 0 0 Z " fill="#000000" transform="translate(1447,577)"/>
<path d="M0 0 C19.92046212 17.96747564 33.77734994 38.81643451 39.58984375 65.3359375 C39.62126693 67.33569063 39.62652512 69.33627391 39.58984375 71.3359375 C30.42267935 73.97405322 21.25216544 76.60008595 12.07715321 79.21077824 C7.81688351 80.42342045 3.55788232 81.64018394 -0.69848633 82.86645508 C-4.80652411 84.04982643 -8.91754111 85.22225425 -13.03084755 86.38717461 C-14.59922512 86.83341954 -16.16649137 87.28358967 -17.73259544 87.7377491 C-19.92722988 88.37345103 -22.12540946 88.99505207 -24.32495117 89.61352539 C-25.57515549 89.97104385 -26.8253598 90.32856232 -28.1134491 90.69691467 C-31.34273908 91.32286958 -33.28854135 91.2580039 -36.41015625 90.3359375 C-36.73886719 89.10230469 -36.73886719 89.10230469 -37.07421875 87.84375 C-39.24018037 80.21886071 -41.86290925 73.8336534 -46.41015625 67.3359375 C-46.81492187 66.72363281 -47.2196875 66.11132812 -47.63671875 65.48046875 C-56.15892228 54.05653334 -70.94071959 48.74146085 -84.41015625 46.3359375 C-102.94986847 45.13548522 -119.24047725 46.44679226 -134.57421875 57.9609375 C-141.03301938 63.87913367 -145.92334989 72.44637858 -146.6484375 81.21875 C-146.86638001 90.73939653 -145.33549887 97.8581746 -139.53515625 105.5234375 C-131.92952353 113.43201996 -121.80461916 116.50448601 -111.3984375 118.76171875 C-110.44527649 118.97328613 -109.49211548 119.18485352 -108.5100708 119.40283203 C-96.6078278 122.00663723 -84.62382802 124.19682468 -72.64013672 126.38818359 C-55.90146427 129.45942503 -39.22421311 132.68266646 -23.59765625 139.6484375 C-22.71585693 140.03596191 -21.83405762 140.42348633 -20.92553711 140.82275391 C6.93790029 153.34099881 29.37656307 174.64942072 40.38330078 203.40917969 C42.02253862 207.99559234 43.36204344 212.62357031 44.58984375 217.3359375 C44.95916016 218.73585938 44.95916016 218.73585938 45.3359375 220.1640625 C51.55826017 249.51626048 43.54563989 279.58996048 27.58984375 304.3359375 C24.82155711 308.2462061 21.83381567 311.81275047 18.58984375 315.3359375 C18.11562988 315.8525293 17.64141602 316.36912109 17.15283203 316.90136719 C-4.59254107 340.32159965 -33.77800094 354.10666591 -65.41015625 358.3359375 C-67.33988281 358.60857422 -67.33988281 358.60857422 -69.30859375 358.88671875 C-113.99765411 363.65374083 -161.70750049 355.13272294 -197.34619141 326.62475586 C-223.42214413 305.13411472 -239.69366375 275.80648515 -244.41015625 242.3359375 C-244.41015625 241.3459375 -244.41015625 240.3559375 -244.41015625 239.3359375 C-231.5883889 235.79856087 -218.67380935 232.62757677 -205.7518425 229.47985649 C-202.41421988 228.66681946 -199.07776176 227.84955497 -195.74365234 227.0222168 C-191.85144536 226.05645429 -187.95527801 225.1076946 -184.05859375 224.16015625 C-182.26486832 223.71188728 -182.26486832 223.71188728 -180.43490601 223.25456238 C-179.32249542 222.98710709 -178.21008484 222.71965179 -177.06396484 222.4440918 C-176.0899472 222.20522751 -175.11592957 221.96636322 -174.11239624 221.72026062 C-171.24853508 221.31295111 -169.18948069 221.59889753 -166.41015625 222.3359375 C-166.20261719 223.47289062 -165.99507812 224.60984375 -165.78125 225.78125 C-162.2652463 243.85681263 -155.14913444 259.12863493 -140.1015625 270.5234375 C-120.91219392 283.44632142 -97.33763612 286.56143652 -74.83203125 283.0234375 C-63.13377549 280.67310301 -51.22816676 275.53089365 -44.41015625 265.3359375 C-39.29233281 256.56487675 -37.78000191 247.66644047 -40.0234375 237.578125 C-43.50148834 227.80281031 -50.15755936 221.45542693 -59.2109375 216.72265625 C-68.50362608 212.69468989 -77.5955349 210.29744262 -87.5625 208.53125 C-88.91155286 208.28344648 -90.26039028 208.03446762 -91.60902405 207.78439331 C-96.56143058 206.86845727 -101.51720668 205.97141305 -106.47363281 205.07751465 C-147.13142308 197.74128209 -186.6689611 187.58149446 -212.16015625 152.0234375 C-228.75374401 126.8960046 -234.66498229 97.04623805 -228.88867188 67.36083984 C-224.63524379 48.04709095 -215.93980962 31.49144232 -203.41015625 16.3359375 C-202.81460937 15.58699219 -202.2190625 14.83804688 -201.60546875 14.06640625 C-196.88630481 8.34244424 -191.25881742 3.86187693 -185.41015625 -0.6640625 C-184.56710937 -1.334375 -183.7240625 -2.0046875 -182.85546875 -2.6953125 C-133.29294152 -40.65809932 -48.24233423 -40.61667408 0 0 Z " fill="#000000" transform="translate(1630.41015625,132.6640625)"/>
<path d="M0 0 C77.88 0 155.76 0 236 0 C236 26.07 236 52.14 236 79 C185.84 79 135.68 79 84 79 C84 102.1 84 125.2 84 149 C129.54 149 175.08 149 222 149 C222 173.42 222 197.84 222 223 C176.46 223 130.92 223 84 223 C84 246.1 84 269.2 84 293 C134.49 293 184.98 293 237 293 C237 319.4 237 345.8 237 373 C158.79 373 80.58 373 0 373 C0 249.91 0 126.82 0 0 Z " fill="#000000" transform="translate(2390,577)"/>
<path d="M0 0 C167.82825079 0 167.82825079 0 186.125 5.6875 C186.94991943 5.94023682 187.77483887 6.19297363 188.62475586 6.45336914 C196.87945995 9.09789495 204.47436827 12.72846345 212 17 C213.47339844 17.83144531 213.47339844 17.83144531 214.9765625 18.6796875 C239.96782194 33.7320599 257.21486878 57.59856922 265.15625 85.49609375 C272.87844563 117.56465616 270.43444794 152.46541427 253.62304688 181.37548828 C247.72274267 191.01182545 240.56995371 200.59556 232 208 C231.14921875 208.7425 230.2984375 209.485 229.421875 210.25 C203.25602094 231.71941872 170.99110298 239.21655056 137.80859375 239.09765625 C136.42777548 239.09618292 135.04695664 239.09516462 133.6661377 239.09460449 C128.58991652 239.08939696 123.51370736 239.07543578 118.4375 239.0625 C107.073125 239.041875 95.70875 239.02125 84 239 C84 283.22 84 327.44 84 373 C56.28 373 28.56 373 0 373 C0 249.91 0 126.82 0 0 Z M85 73 C85 104.02 85 135.04 85 167 C92.96125 167.04125 100.9225 167.0825 109.125 167.125 C111.60789551 167.14320801 114.09079102 167.16141602 116.64892578 167.18017578 C136.93572769 167.26768327 157.84388531 166.93199008 173.29296875 151.74609375 C183.10635524 140.27566264 185.85548592 127.74546645 185 113 C183.21877246 101.27475413 178.15822247 90.41734276 168.55859375 83.15234375 C159.21970739 76.89542273 149.33859654 72.86222999 138.01635742 72.88647461 C136.81910034 72.88659546 135.62184326 72.88671631 134.38830566 72.88684082 C132.51580139 72.89451477 132.51580139 72.89451477 130.60546875 72.90234375 C128.87327087 72.90385437 128.87327087 72.90385437 127.1060791 72.90539551 C122.79987594 72.91062028 118.49368695 72.92458155 114.1875 72.9375 C99.7396875 72.9684375 99.7396875 72.9684375 85 73 Z " fill="#000000" transform="translate(2086,577)"/>
<path d="M0 0 C197.89007092 0 197.89007092 0 235 35 C235.68835937 35.62390625 236.37671875 36.2478125 237.0859375 36.890625 C255.71612567 54.41625656 267.37527908 82.7723973 268.3853302 108.12910461 C268.4674106 111.64968696 268.46834194 115.1662626 268.4375 118.6875 C268.43293793 119.79844025 268.43293793 119.79844025 268.42828369 120.93182373 C268.35548343 132.95939738 267.50417914 144.43755142 264 156 C263.68651611 157.04462402 263.68651611 157.04462402 263.36669922 158.11035156 C254.12605427 187.66657173 233.25560982 210.68373223 206.14672852 225.11132812 C184.39829009 236.039142 160.96791419 239.18539441 136.9296875 239.09765625 C135.56974326 239.09618236 134.20979844 239.09516441 132.84985352 239.09460449 C127.85822692 239.08940342 122.86661253 239.07544232 117.875 239.0625 C101.106875 239.0315625 101.106875 239.0315625 84 239 C84 283.22 84 327.44 84 373 C56.28 373 28.56 373 0 373 C0 249.91 0 126.82 0 0 Z M84 73 C84 104.02 84 135.04 84 167 C96.189375 167.061875 96.189375 167.061875 108.625 167.125 C112.42765381 167.15231201 112.42765381 167.15231201 116.30712891 167.18017578 C137.71549439 167.27149487 156.64538776 166.68628009 172.9296875 151.16015625 C181.85949961 141.78960234 184.48182725 130.58419542 185 118 C184.70751843 106.35391566 180.20288449 95.03565285 172.1875 86.5 C159.89711781 75.50210542 145.6903966 72.33879529 129.5078125 72.609375 C128.34241943 72.61340332 127.17702637 72.61743164 125.97631836 72.62158203 C121.69238155 72.64224635 117.40867211 72.69808784 113.125 72.75 C103.51375 72.8325 93.9025 72.915 84 73 Z " fill="#000000" transform="translate(1783,577)"/>
<path d="M0 0 C89.1 0 178.2 0 270 0 C270 26.4 270 52.8 270 80 C238.98 80 207.96 80 176 80 C176 176.69 176 273.38 176 373 C148.61 373 121.22 373 93 373 C93 276.31 93 179.62 93 80 C62.31 80 31.62 80 0 80 C0 53.6 0 27.2 0 0 Z " fill="#000000" transform="translate(1689,111)"/>
<path d="M0 0 C5.47436397 4.76430003 9.39211635 10.52938664 10.23828125 17.82421875 C10.41059071 26.87553313 9.35557835 33.61470324 3.1875 40.5 C-3.11109674 46.32270277 -9.58476455 47.02711179 -17.94140625 46.875 C-24.97819348 46.32377065 -30.15445721 43.71649973 -35.1328125 38.625 C-39.73076001 31.25065608 -40.9527995 24.25829171 -40.1328125 15.625 C-38.01616436 7.55368512 -33.02037414 2.13571689 -26.1328125 -2.3125 C-17.90674856 -5.2716497 -7.32028888 -4.86177677 0 0 Z " fill="#F4A400" transform="translate(1221.1328125,64.375)"/>
</svg>