<?xml version="1.0" encoding="UTF-8"?>
<svg id="Lager_2" data-name="Lager 2" xmlns="http://www.w3.org/2000/svg" version="1.1" viewBox="0 0 266.2 81.4">
  <defs>
    <style>
      .cls-1 {
        fill: #012c56;
        stroke-width: 0px;
      }
    </style>
  </defs>
  <path class="cls-1" d="M34.7,5.9c-12.5,0-24,4.1-33.3,11.1v11.1c0,22.8,13.7,42.3,33.3,50.9,19.6-8.6,33.3-28.1,33.3-50.9v-11.1c-9.3-7-20.8-11.1-33.3-11.1h0ZM59.1,28.1c0,1.4,0,2.9-.2,4.3h0c-10.7-9.1-27-11.4-39.7-5.4-.4,12.3,5.6,24.5,15.5,31.6,4.6-3.3,8.5-7.8,11.2-12.9h-11.2v-8.9h23.6c-2.5,13.5-11.5,25.8-23.6,32.3-14.8-7.9-24.6-24.1-24.4-41v-6.4c14.5-9.2,34.3-9.2,48.8,0v6.4h0Z"/>
  <g>
    <path class="cls-1" d="M100.7,61.4c-10.1.2-16.3-7.3-16.2-17.1-.1-3.7.5-7.4,1.9-10.2,2.6-5.4,7.5-8.4,13.6-8.4,4.7,0,9.1,1.1,12.5,3.9v7.5h-4.9l-.9-4.7c-1.7-1.3-3.9-1.7-6.3-1.7-4,0-6.9,2.3-8.4,5.9-.9,2.1-1.3,5-1.2,7.6,0,6.4,3.1,12.2,9.9,12,2.2,0,4.4-.4,6.1-1.2v-6.4l-5.3-.4v-4.6h11.8v13.9c-3.6,2.6-7.8,3.7-12.8,3.7h0Z"/>
    <path class="cls-1" d="M128.3,61.4c-6.3,0-8.8-4.2-8.8-10.7v-10.9l-2.9-.7v-3.9h9.3v15.6c0,2,.3,3.5,1,4.3s1.7,1.3,3.1,1.3c2.2,0,4-.9,5.1-2.7v-13.9l-3.1-.7v-3.9h9.6v21.1l3.1.7v3.9h-8.8l-.4-3.4c-1.6,2.6-4.2,3.9-7.3,3.9h0Z"/>
    <path class="cls-1" d="M156.1,61.4c-2.6,0-4.6-.7-6.1-2-3.2-2.8-3-8.9.7-11.5,3-2.4,7.8-2.3,12.2-2.3v-2c0-1.3-.4-2.3-1.2-3.1-1.6-1.7-5.4-1.5-7.3,0l-.5,3.5h-4.7v-6.5c1.3-.8,2.7-1.4,4.2-1.9,3.9-1.3,10.2-1,13.1,1.6,1.9,1.5,2.9,3.8,2.9,6.7,0,1.4-.1,11.8,0,13l2.6.4v3.9h-8.2c-.3-1-.7-2-.8-3.1-1.8,2.2-4.1,3.6-7,3.6h0ZM157.7,56.5c2,0,4.2-1,5.3-2.7v-4.2h-3.7c-1.7,0-2.9.4-3.8,1.2-1.5,1.2-1.8,3.7-.4,4.9.6.5,1.5.8,2.6.8h0Z"/>
    <path class="cls-1" d="M175.2,60.9v-3.9l3.5-.7v-16.5l-3.7-.7v-3.9h9.7c0,.4.3,3.5.3,3.8,1.7-3.8,4.7-4.9,8.5-3.9l-.7,6-3.4-.2c-2-.1-3.2.8-4.2,2.4v13l3.5.7v3.9h-13.4,0Z"/>
    <path class="cls-1" d="M205.3,61.4c-6.9,0-10-6.3-9.9-12.6,0-4.8,1-9.6,4.6-12.4,2.3-1.9,6.4-2.2,9.1-.9,1.1.6,2,1.4,2.8,2.4v-9.5l-3.7-.7v-3.9h10.2v32.5l3.5.7v3.9h-9l-.5-3.1c-1.7,2.4-3.9,3.6-6.9,3.6h0ZM207.1,56.3c2.1,0,3.6-.9,4.7-2.7v-11.1c-.5-.9-1.1-1.6-1.9-2-1.6-1-4.4-1-5.7.3-.8.7-1.4,1.7-1.7,3-.4,1.4-.6,3.2-.6,5,0,4,1,7.5,5.3,7.5h0Z"/>
    <path class="cls-1" d="M224,60.9v-3.9l3.5-.7v-16.5l-3.7-.7v-3.9h10.2v21.1l3.5.7v3.9h-13.4ZM227.2,29.5v-5.7h6.7v5.7h-6.7Z"/>
    <path class="cls-1" d="M252,61.4c-7.6.1-12.2-5.8-12.1-13.1,0-2.6.4-5.2,1.5-7.3,2-4.1,5.8-6.4,10.6-6.3,4.7,0,8.6,2.2,10.6,6.3,1,2.1,1.5,4.6,1.4,7.3.1,7.3-4.4,13.2-12,13.1h0ZM252,56.4c4.3,0,5.6-4.4,5.5-8.1,0-1.7-.1-3.4-.6-4.7-.4-1.2-1-2.2-1.8-2.9-1.5-1.4-4.7-1.4-6.3,0-1.9,1.7-2.4,4.4-2.4,7.1-.1,3.9,1,8.7,5.6,8.6h0Z"/>
  </g>
</svg>