<?xml version="1.0" encoding="UTF-8"?>
<svg xmlns="http://www.w3.org/2000/svg" version="1.1" viewBox="0 0 720 400">
  <!-- Generator: Adobe Illustrator 28.6.0, SVG Export Plug-In . SVG Version: 1.2.0 Build 709)  -->
  <g>
    <g id="Lager_1">
      <path d="M660,201.7c-14.7-.3-14.7-22.2,0-22.4,14.7.3,14.7,22.2,0,22.4ZM660,181.8c-11.4,0-11.4,17.3,0,17.4,11.4,0,11.4-17.3,0-17.4Z"/>
      <g>
        <path d="M132.3,179.4c26.2-.6,16.7,39.4,18.4,56.3h-18.3v-29c-.3-6.8-1.1-10.6-8.2-10.6-7.2,0-7.9,3.9-8.1,10.6v29h-18.3v-29c-.3-6.8-1.1-10.6-8.2-10.6-7.2,0-7.9,3.9-8.1,10.6v29h-18.3v-55.7h18.3v10.2h.4c3-14.5,28.9-14.6,31.7,0h.3c2.7-8.4,9-10.7,18.5-10.8Z"/>
        <path d="M182.2,179.4c40.1-1.5,29.2,28.5,30.8,56.3h-17.1v-5.3h-.4c-4.4,5.1-10.9,6.2-18.7,6.3-18.4,1.8-26.1-19.5-14.6-31,5.8-6.2,24.6-4.2,33.4-4.5-1.7-12.9-24.8-7.4-33.9-5.7l-.3-.2v-13.3c6.1-1.7,14.4-2.6,20.8-2.6h0ZM181.5,223.2c8.4,0,15.5-1.6,14.3-10.3-4.2.3-16.9-1-20,1.4-5,4.4-.2,9.6,5.7,8.9Z"/>
        <path d="M223.8,219v-24h-8.2v-14.9h8.1v-13.6h18.3v13.6h9.9v14.9h-9.9c.4,3.2-.8,22.1.8,24.4,2.5,2.4,8.3.7,11.7.6l.3.2v14.9c-14,3-32.2,4.6-31.1-16.1h0Z"/>
        <path d="M352.4,233.8c-14.6,3.8-40.5,6.8-49.6-8.5-5.6-9.1-4.7-32.7,3.4-39.2,6.6-7.8,28.7-8.6,37.9-3.8,11.7,5.5,12.3,19.5,10.4,30.9l-.5.5h-37.7c1.1,12.4,26.6,7.6,35.6,7.1l.5.3v12.7h0ZM339.3,201.7c.3-7-4.8-9.1-11.7-8.9-8,0-11.4,2-11.7,8.9h23.4Z"/>
        <path d="M381,235.7h-18.3v-55.7h16.3v11.4h.4c1.3-13.4,15.9-12.8,26.3-11.2v17.9l-.2.2c-30.3-7.2-23.4,17.1-24.5,37.4h0Z"/>
        <path d="M429.8,235.7h-18.3v-76.9h18.3v31.4h.3c2.9-11.5,19.1-12.9,28.1-8.6,13.7,7.2,7,40.8,8.5,54.1h-18.3v-27.7c-.3-7.8-1.3-11.8-9.4-11.9-7.2.1-9,3.8-9.3,11v28.6h0Z"/>
        <path d="M472.9,208.2c.2-20.7,7.7-28.7,28.6-28.8,19.8-.6,29.2,9.3,28.6,28.8.6,19.5-9,29.1-28.6,28.5-20.7-.1-28.4-8-28.6-28.5h0ZM501.5,221c9.5-.1,11.1-3.9,11.3-13.2-.2-9-2-13-11.3-13-9.1,0-11.2,4.2-11.3,13,.2,9.2,2,13,11.3,13.2Z"/>
        <path d="M604.7,235.7h-18.3v-55.7h18.2v10.2h.4c3-13,24.6-13.8,31.9-5.2,7.6,7.8,3.9,39.5,4.8,50.7h-18.3v-27.7c-.3-7.8-1.3-11.8-9.4-11.9-7.4,0-9,3.5-9.3,10.9v28.7h0Z"/>
        <path d="M265.6,219v-24h-8.2v-14.9h8.1v-13.6h18.3v13.6h9.9v14.9h-9.9c.4,3.2-.8,22.1.8,24.4,2.5,2.4,8.3.7,11.7.6l.3.2v14.9c-14,3-32.2,4.6-31.1-16.1h0Z"/>
        <path d="M555.9,235.7h-18.3v-55.7h16.3v11.4h.4c1.3-13.4,15.9-12.8,26.3-11.2v17.9l-.2.2c-30.3-7.2-23.4,17.1-24.5,37.4h0Z"/>
      </g>
      <path d="M662.1,191.7c2.8-.5,3.7-4.4,1.7-6.2-1.4-1.6-6.3-.8-8.2-1v11.9h2.6v-4.6h1.2l2.9,4.6h3.1c0,0-3.2-4.8-3.2-4.8h0ZM661.8,189.3c-.6.6-2.8.3-3.6.3v-2.8c1.7-.1,5.6-.2,3.6,2.5Z"/>
    </g>
  </g>
</svg>