<?xml version="1.0" encoding="UTF-8"?>
<svg id="Lager_1" data-name="Lager 1" xmlns="http://www.w3.org/2000/svg" version="1.1" viewBox="0 0 720 400">
  <defs>
    <style>
      .cls-1 {
        fill: #000;
      }

      .cls-1, .cls-2 {
        stroke-width: 0px;
      }

      .cls-2 {
        fill: #f18b1b;
      }
    </style>
  </defs>
  <path class="cls-2" d="M540.8,259.8h-233.2l58.3-105.5,58.3-105.5,58.3,105.5,58.3,105.5h0Z"/>
  <path class="cls-2" d="M292.6,259.8h-116.6l58.3-105.5,58.3-105.5,58.3,105.5-58.3,105.5h0Z"/>
  <path class="cls-1" d="M176,349.8h14.2v-61.6h14.2v61.6h14.2v-61.6h14.2v61.6h14.2v-61.6c0-5.1-6.3-9.1-14.2-9.1h-56.7v70.7Z"/>
  <path class="cls-1" d="M316.7,349.8h14.2v-61.6h14.2v61.6h14.2v-61.6c0-5.1-6.3-9.1-14.2-9.1h-28.4v70.7h0Z"/>
  <path class="cls-1" d="M500.3,349.8h14.2v-61.6h27.5v-9.1h-27.5c-7.9,0-14.2,4.1-14.2,9.1v61.6Z"/>
  <path class="cls-1" d="M261,279.2h42.6v70.6h-42.6v-70.6ZM275.1,288.2v51.6h14.4v-51.6h-14.4Z"/>
  <path class="cls-1" d="M445.7,279.2h42.6v70.6h-42.6v-70.6h0ZM459.8,288.2v51.6h14.4v-51.6h-14.4Z"/>
  <path class="cls-1" d="M369.6,279.2h14.5v70.6h-14.5v-70.6Z"/>
  <path class="cls-1" d="M435.7,284.3v8.7h-22.8v47.6h22.8v9.1h-22.8c-7.9,0-14.2-4.1-14.2-9.1v-47.6h-5.5v-8.7h5.5v-5.3h14.1v5.3h22.9,0Z"/>
  <path class="cls-1" d="M529.9,339.1h1.2c1.4,0,2.6-.5,2.6-1.6s-.7-1.7-2.4-1.7-1.2,0-1.4.1v3.2h0ZM529.9,345.3h-2.6v-11.1c1-.1,2.4-.3,4.3-.3s3,.3,3.8.9c.7.5,1.1,1.3,1.1,2.4s-1,2.2-2.3,2.6h0c1.1.5,1.6,1.4,2,2.8.3,1.7.6,2.3.8,2.7h-2.7c-.3-.4-.5-1.4-.9-2.7-.2-1.2-.9-1.7-2.3-1.7h-1.2v4.4h0ZM531.6,330.7c-4.8,0-8.5,4-8.5,8.9s3.7,8.9,8.7,8.9c4.8,0,8.5-3.9,8.5-8.8s-3.7-8.9-8.5-8.9h0ZM531.7,328.5c6.3,0,11.3,4.9,11.3,11.1s-5,11.2-11.4,11.2-11.4-4.9-11.4-11.2,5.1-11.1,11.4-11.1h0Z"/>
</svg>