<?xml version="1.0" encoding="UTF-8"?>
<svg xmlns="http://www.w3.org/2000/svg" version="1.1" viewBox="0 0 720 400">
  <!-- Generator: Adobe Illustrator 28.6.0, SVG Export Plug-In . SVG Version: 1.2.0 Build 709)  -->
  <g>
    <g id="Lager_1">
      <g>
        <path d="M145.8,152.8c-2.2-10.4-14.6-17.7-26.7-24.8-11.8-6.9-23.9-14.1-25.7-23.7-.5-3,.3-6,2.4-8.5,2.9-3.5,7.6-5.5,13-5.5,13.2,0,20,11.5,24.5,21.5l.5,1.1,11.2-12.3-.5-.6c-3.2-3.5-15.3-14.9-34.3-14.9s-20.9,4.5-26.3,11.4c-3.8,4.9-5.1,10.7-3.6,16.9,2.7,11.2,15.3,19.1,27.5,26.8,12.9,8.1,25.1,15.7,24.2,26.2-.8,8.5-7.3,14.2-16.3,14.2s-2.7-.1-4.2-.4c-8.4-1.7-15.6-9.9-25.8-22.2l-.6-.8-11,13.2.6.5c.2.1,17.3,15,37.2,15s23.1-4.3,29.2-11.9c4.8-5.9,6.4-13.2,4.7-21.2h0Z"/>
        <path d="M385,88.7v71.6c0,12.2-6.9,18.6-19.8,18.6s-20-6.4-20-18.6v-76.1l-14.8,4.5v62.8c0,22.4,17.5,32.4,34.8,32.4s34.7-10,34.7-32.4v-67.3l-14.8,4.5h0Z"/>
        <polygon points="446.7 86.8 446.7 92.3 477.6 92.3 477.6 183.9 492.3 183.9 492.3 92.3 523.2 92.3 523.2 86.8 446.7 86.8"/>
        <polygon points="623.2 88.7 623.2 132.4 585.8 132.4 585.8 84.2 571 88.7 571 183.9 585.8 183.9 585.8 137.3 623.2 137.3 623.2 183.9 638.1 183.9 638.1 84.2 623.2 88.7"/>
        <path d="M260.7,90.2c-20.4-11.9-48.7-1.2-63,23.9-14.4,25.2-9.4,55.3,11,67.2,20.4,11.9,48.7,1.2,63-24,14.3-25.1,9.4-55.2-11.1-67.1h0ZM211.3,176.8c-12.9-7.6-12.9-32,0-54.7,12.9-22.7,33.9-34.9,46.8-27.4,12.9,7.6,12.9,32,0,54.7-12.9,22.7-33.9,34.9-46.8,27.4h0Z"/>
      </g>
      <g>
        <g>
          <path d="M604.3,317.5c-.5-1.2-1.3-2.3-2.2-3.2s-2-1.6-3.3-2.2c-1.2-.5-2.6-.8-4-.8s-2.7.3-4,.8-2.3,1.2-3.3,2.2c-.9.9-1.7,2-2.2,3.2-.5,1.2-.8,2.5-.8,3.9s.3,2.7.8,3.9c.5,1.2,1.3,2.3,2.2,3.2s2,1.7,3.3,2.2c1.2.5,2.6.8,4,.8s2.7-.3,4-.8,2.3-1.2,3.3-2.2c.9-.9,1.7-2,2.2-3.2.5-1.2.8-2.5.8-3.9s-.3-2.7-.8-3.9ZM601.4,325.2c-.7,1.1-1.6,2-2.8,2.7s-2.4,1-3.8,1-2.7-.3-3.8-1-2.1-1.6-2.8-2.7c-.7-1.1-1-2.4-1-3.8s.3-2.6,1-3.8,1.6-2,2.8-2.7,2.4-1,3.8-1,2.7.3,3.8,1c1.2.7,2.1,1.6,2.8,2.7.7,1.1,1,2.4,1,3.8s-.3,2.6-1,3.8Z"/>
          <path d="M598.5,321.4c.3-.5.5-1,.5-1.7s-.1-1.2-.5-1.7-.7-.8-1.2-1-1-.3-1.5-.3h-4.7v9.3h2.3v-3.1h1.7l1.5,3.1h2.6l-1.9-3.6c.4-.2.8-.5,1.1-1h0ZM593.5,318.4h1.7c.3,0,.6,0,.9.3.3.2.4.6.4,1.1s-.1.8-.4,1.1-.6.4-.9.4h-1.7v-2.8h0Z"/>
        </g>
        <polygon points="243 233.8 217.5 321.5 192.1 233.8 174.9 233.8 185.9 269.1 170.7 321.5 145.2 233.8 128.2 233.8 158.2 330.9 173.1 330.9 189.1 279.4 205.1 330.9 219.9 330.9 250 233.8 243 233.8"/>
        <polygon points="352.8 239.6 352.8 233.8 297.9 233.8 297.9 330.9 352.8 330.9 352.8 325.1 312.7 326.1 312.7 284.3 339.2 284.3 342.5 279.4 312.7 279.4 312.7 238.7 352.8 239.6"/>
        <path d="M466.3,299.8c-2.2-10.4-14.6-17.7-26.7-24.8-11.8-6.9-23.9-14.1-25.7-23.7-.5-3,.3-6,2.4-8.5,2.9-3.5,7.6-5.5,13-5.5,13.2,0,20,11.5,24.5,21.5l.5,1.1,11.2-12.3-.5-.6c-3.2-3.5-15.3-14.9-34.3-14.9s-20.9,4.5-26.3,11.4c-3.8,4.9-5.1,10.7-3.6,16.9,2.7,11.2,15.3,19.1,27.5,26.8,12.9,8.1,25.1,15.7,24.2,26.2-.8,8.5-7.3,14.2-16.3,14.2s-2.7-.1-4.2-.4c-8.4-1.7-15.6-9.9-25.8-22.2l-.6-.8-11,13.2.6.5c.2.1,17.3,15,37.2,15s23.1-4.3,29.2-11.9c4.8-5.9,6.4-13.2,4.7-21.2h0Z"/>
        <polygon points="507.3 233.8 507.3 239.3 538.2 239.3 538.2 330.9 552.9 330.9 552.9 239.3 583.8 239.3 583.8 233.8 507.3 233.8"/>
      </g>
    </g>
  </g>
</svg>