<?xml version="1.0" encoding="UTF-8"?>
<svg xmlns="http://www.w3.org/2000/svg" version="1.1" viewBox="0 0 720 400">
  <!-- Generator: Adobe Illustrator 28.6.0, SVG Export Plug-In . SVG Version: 1.2.0 Build 709)  -->
  <g>
    <g id="Lager_1">
      <g>
        <polygon points="125.6 135.4 58.7 135.4 58.7 148.2 84.6 148.2 84.6 219.3 99.7 219.3 99.7 148.2 125.6 148.2 125.6 135.4"/>
        <path d="M179.9,139.4c-11.2-6.8-28.2-6.8-39.4,0-13.1,7.9-18.9,21.9-18.8,38,0,16.1,5.7,30,18.8,37.9,11.3,6.8,28.2,6.8,39.4,0,13-7.9,18.9-21.8,18.8-37.9,0-16.1-5.8-30.1-18.8-38h0ZM180.4,193.5c-5,12.7-21.3,17-32.3,9.9-8.4-5.6-11.2-15.2-11.2-26,0-10.8,2.9-20.5,11.2-26.1,6.8-4.5,17.4-4.5,24.1,0,12.5,7.9,13.6,29.6,8.2,42.2h0Z"/>
        <path d="M268.7,163.3c.3-17-12.4-28.4-29.6-27.8h-31.5v83.9h15.2v-28.3c9.2-.2,24.8,1.2,32.4-3.6,9.1-4.9,13.5-13.9,13.5-24.2h0ZM251.5,171.2c-2.8,5.4-8.1,7.3-14.7,7.3h-14v-30.3c5.8.3,18.5-1,23.3,1.9,7.5,3.6,8.6,14.2,5.3,21.1h0Z"/>
        <path d="M320.9,222.2c-4.8-3.9-11-6.3-17-7.7-6.4-1.8-15.2-2.9-20-7.8-4.5-4.9-1.4-13.2,4.9-15.2,8.6-3.4,23.1-1.2,23.9,9.9h14.7c-.2-15.8-15.3-24.6-30.3-24.2-15-.3-30.9,8.5-30.7,24.7-.2,17.5,17.5,21.6,31.8,25.1,5.1,1.4,10,2.7,13.2,6.2,4.7,5.6.4,13.8-6.1,15.9-9.5,3.8-25.6,1-26.2-11.6h-15c.3,17.8,15.9,26.5,32.6,26.1,11.5,0,21.8-3.1,28-11.9,6-8.7,4.9-22.8-3.9-29.3h0Z"/>
        <polygon points="409.4 239.9 408.5 239.9 392.5 178.2 377.6 178.2 361.4 239.9 360.7 239.9 345.5 178.2 329.2 178.2 352.9 262.1 367.9 262.1 384.7 203.3 385.3 203.3 402.1 262.1 417.1 262.1 440.8 178.2 424.4 178.2 409.4 239.9"/>
        <polygon points="461.4 226 497.9 226 497.9 213.5 461.4 213.5 461.4 190.9 500.8 190.9 500.8 178.2 446.2 178.2 446.2 262.1 501 262.1 501 249.4 461.4 249.4 461.4 226"/>
        <path d="M561.3,183.2c-6-3.3-13.1-5-21.5-5h-29v83.9h28.5c15.7,0,28.8-5.9,35.8-19.5,9.2-18.5,6.1-49-13.8-59.4h0ZM562,236.1c-6.7,14.6-22.1,12.8-35.9,12.8v-57.5c7.9,0,20.8-.9,27.2,3.2,13.4,7.1,13.9,29.2,8.7,41.6Z"/>
        <polygon points="604.2 249.4 604.2 226 640.7 226 640.7 213.5 604.2 213.5 604.2 190.9 643.6 190.9 643.6 178.2 589 178.2 589 262.1 643.8 262.1 643.8 249.4 604.2 249.4"/>
      </g>
      <g>
        <path d="M665.1,184.6c.3-.4.4-.9.4-1.5s-.1-1.1-.4-1.4-.6-.7-1-.9c-.4-.2-.8-.3-1.3-.3h-4v8h2v-2.7h1.5l1.3,2.7h2.2l-1.6-3.1c.4-.2.7-.5.9-.8h0ZM660.8,181.9h1.4c.3,0,.5,0,.8.3.2.2.4.5.4.9s-.1.7-.4.9-.5.3-.8.3h-1.4v-2.4Z"/>
        <path d="M670,181.2c-.4-1.1-1.1-2-1.9-2.8s-1.7-1.4-2.8-1.9c-1.1-.4-2.2-.7-3.4-.7s-2.3.2-3.4.7-2,1.1-2.8,1.9c-.8.8-1.4,1.7-1.9,2.8-.4,1.1-.7,2.2-.7,3.4s.2,2.3.7,3.4,1.1,2,1.9,2.8,1.7,1.4,2.8,1.9c1.1.4,2.2.7,3.4.7s2.3-.2,3.4-.7,2-1.1,2.8-1.9c.8-.8,1.4-1.7,1.9-2.8.4-1.1.7-2.2.7-3.4s-.2-2.3-.7-3.4ZM667.5,187.8c-.6,1-1.4,1.8-2.3,2.3-1,.6-2.1.9-3.3.9s-2.3-.3-3.3-.9c-1-.6-1.8-1.4-2.3-2.3-.6-1-.9-2.1-.9-3.3s.3-2.3.9-3.3c.6-1,1.4-1.8,2.3-2.3,1-.6,2.1-.9,3.3-.9s2.3.3,3.3.9c1,.6,1.8,1.4,2.3,2.3.6,1,.9,2.1.9,3.3s-.3,2.3-.9,3.3h0Z"/>
      </g>
    </g>
  </g>
</svg>